<svg width="281" height="247" viewBox="0 0 281 247" fill="none" xmlns="http://www.w3.org/2000/svg">
<path d="M65.9999 240.89L46.9999 208C46.7087 207.398 46.5574 206.738 46.5574 206.07C46.5574 205.402 46.7087 204.742 46.9999 204.14L68.1099 167.6C68.4798 167.034 68.9775 166.563 69.5628 166.224C70.1481 165.885 70.8048 165.689 71.4799 165.65H113.68C114.356 165.689 115.014 165.886 115.601 166.225C116.188 166.563 116.687 167.034 117.06 167.6L138.16 204.14C138.461 204.746 138.618 205.413 138.618 206.09C138.618 206.767 138.461 207.434 138.16 208.04L117 244.56C116.627 245.111 116.135 245.571 115.56 245.907C114.986 246.243 114.343 246.445 113.68 246.5H75.7699C73.8209 246.374 71.9266 245.803 70.2328 244.831C68.5391 243.858 67.091 242.51 65.9999 240.89V240.89ZM203 165.68L161 92.88C160.488 92.1119 159.806 91.4722 159.006 91.0109C158.206 90.5495 157.311 90.2789 156.39 90.22H72.2899C71.3687 90.2789 70.4734 90.5495 69.6739 91.0109C68.8743 91.4722 68.1919 92.1119 67.6799 92.88L25.6299 165.72C25.2209 166.547 25.0081 167.457 25.0081 168.38C25.0081 169.303 25.2209 170.213 25.6299 171.04L37.9999 192.4L59.5599 155.08C60.1425 154.192 60.9236 153.451 61.8418 152.916C62.7599 152.382 63.7897 152.068 64.8499 152H120.25C121.318 152.06 122.356 152.369 123.282 152.904C124.208 153.439 124.995 154.185 125.58 155.08L153.29 203.08C153.773 204.035 154.025 205.09 154.025 206.16C154.025 207.23 153.773 208.285 153.29 209.24L131.73 246.56H156.36C157.283 246.505 158.181 246.235 158.982 245.772C159.782 245.308 160.463 244.664 160.97 243.89L203 171.06C203.419 170.225 203.637 169.304 203.637 168.37C203.637 167.436 203.419 166.515 203 165.68V165.68ZM279.3 117.51L214.85 5.75C213.752 4.07361 212.274 2.67946 210.537 1.68048C208.799 0.681507 206.851 0.105802 204.85 0L75.8499 0C73.8487 0.105802 71.9004 0.681507 70.1631 1.68048C68.4257 2.67946 66.9481 4.07361 65.8499 5.75L1.36994 117.51C0.467733 119.289 -0.00244141 121.255 -0.00244141 123.25C-0.00244141 125.245 0.467733 127.211 1.36994 128.99L16.1599 154.6L58.9999 80.33C59.7243 79.225 60.6979 78.3055 61.8425 77.6454C62.9871 76.9854 64.2707 76.6034 65.5899 76.53H163C164.318 76.6033 165.6 76.9855 166.743 77.6456C167.886 78.3056 168.858 79.2252 169.58 80.33L218.27 164.66C218.867 165.838 219.177 167.14 219.177 168.46C219.177 169.78 218.867 171.082 218.27 172.26L175.39 246.5H204.89C206.891 246.394 208.839 245.818 210.577 244.82C212.314 243.821 213.792 242.426 214.89 240.75L279.37 129C280.268 127.22 280.735 125.254 280.735 123.26C280.735 121.266 280.268 119.3 279.37 117.52L279.3 117.51Z" fill="url(#paint0_linear)"/>
<defs>
<linearGradient id="paint0_linear" x1="70.1799" y1="244.81" x2="210.56" y2="1.68999" gradientUnits="userSpaceOnUse">
<stop stop-color="#FFDC00"/>
<stop offset="0.33" stop-color="#E58E2F"/>
<stop offset="0.67" stop-color="#DB2D72"/>
<stop offset="1" stop-color="#FF00FF"/>
</linearGradient>
</defs>
</svg>
