<svg width="299" height="322" viewBox="0 0 299 322" fill="none" xmlns="http://www.w3.org/2000/svg">
<g style="mix-blend-mode:darken">
<g style="mix-blend-mode:darken">
<path d="M108.337 58.9227C105.236 58.4422 105.105 58.3858 106.564 58.1617C109.361 57.7321 115.964 58.3177 120.515 59.3985C131.138 61.9211 140.804 68.3833 151.122 79.8603L153.864 82.9093L157.785 82.2794C174.306 79.6272 191.112 81.7351 205.169 88.2224C209.036 90.0071 215.134 93.5598 215.895 94.4727C216.138 94.7636 216.583 96.6365 216.885 98.635C217.929 105.549 217.406 110.849 215.29 114.807C214.138 116.961 214.073 117.644 214.848 119.488C215.467 120.959 217.19 122.047 218.897 122.045C222.389 122.04 226.151 116.399 227.892 108.55L228.584 105.432L229.955 106.983C237.474 115.494 243.381 127.101 244.395 135.363L244.659 137.517L243.396 135.559C241.221 132.189 239.034 129.895 236.236 128.045C231.19 124.71 225.855 123.575 211.729 122.831C198.969 122.16 191.747 121.071 184.586 118.738C172.403 114.77 166.262 109.485 151.79 90.5166C145.362 82.0915 141.389 77.4301 137.437 73.6762C128.456 65.1464 119.632 60.6729 108.337 58.9227Z" fill="black"/>
</g>
<g style="mix-blend-mode:darken">
<path d="M218.769 77.7307C219.091 72.0851 219.856 68.3614 221.397 64.9606C222.008 63.6146 222.578 62.5129 222.667 62.5129C222.755 62.5129 222.489 63.5064 222.077 64.7206C220.957 68.0209 220.772 72.5351 221.544 77.7872C222.524 84.4511 223.081 85.4126 230.132 92.611C233.438 95.9875 237.285 100.246 238.679 102.074L241.215 105.398L238.679 103.023C235.579 100.117 228.448 94.4514 226.874 93.6414C225.817 93.0983 225.66 93.1077 225.009 93.7555C224.408 94.3523 224.282 95.2491 224.199 99.4892C224.069 106.098 223.167 110.339 220.992 114.58C219.814 116.874 219.628 116.384 220.693 113.795C221.488 111.862 221.569 111.012 221.564 104.615C221.551 91.7616 220.024 88.6714 211.067 83.3779C208.798 82.0369 205.058 80.103 202.757 79.08C200.457 78.057 198.629 77.166 198.696 77.0994C198.949 76.8473 207.685 79.3944 211.202 80.7457C216.432 82.7555 217.295 83.0161 217.93 82.7736C218.357 82.611 218.563 81.3722 218.769 77.7307Z" fill="black"/>
</g>
<g style="mix-blend-mode:darken">
<path d="M114.361 99.7219C108.065 91.0638 104.17 77.7889 105.014 67.8653L105.274 64.7944L106.707 65.0556C109.398 65.5459 114.038 67.2711 116.211 68.5895C122.173 72.2067 124.754 76.9691 127.38 89.1984C128.149 92.7804 129.158 96.834 129.622 98.2064C130.37 100.415 133.195 105.575 135.491 108.926C137.146 111.339 136.047 112.483 132.39 112.153C126.805 111.649 119.241 106.434 114.361 99.7219Z" fill="black"/>
</g>
<g style="mix-blend-mode:darken">
<path d="M211.139 164.159C181.72 152.326 171.358 142.054 171.358 124.724C171.358 122.173 171.446 120.086 171.553 120.086C171.66 120.086 172.799 120.928 174.083 121.957C180.048 126.737 186.729 128.779 205.222 131.474C216.105 133.06 222.23 134.341 227.879 136.213C245.835 142.162 256.944 154.235 259.594 170.679C260.364 175.457 259.912 184.418 258.664 189.14C257.679 192.87 254.672 199.594 253.874 199.852C253.653 199.924 253.437 199.077 253.379 197.925C253.077 191.75 249.954 185.739 244.709 181.235C238.744 176.116 230.732 172.039 211.139 164.159Z" fill="black"/>
</g>
<g style="mix-blend-mode:darken">
<path d="M190.479 169.076C190.111 166.885 189.471 164.086 189.058 162.857L188.308 160.623L189.702 162.186C191.632 164.35 193.156 167.118 194.449 170.806C195.435 173.62 195.546 174.457 195.538 179.03C195.531 183.52 195.408 184.461 194.497 186.995C193.061 190.989 191.279 193.822 188.288 196.862C182.914 202.326 176.005 205.351 166.034 206.606C164.301 206.823 159.25 207.191 154.809 207.421C143.618 208.003 136.252 209.205 129.633 211.527C128.682 211.86 127.832 212.064 127.746 211.977C127.478 211.711 131.984 209.027 135.706 207.235C140.955 204.71 146.179 203.332 157.885 201.385C163.667 200.422 169.638 199.255 171.155 198.791C185.474 194.405 192.835 183.086 190.479 169.076Z" fill="black"/>
</g>
<g style="mix-blend-mode:darken">
<path d="M203.966 193.004C200.057 184.61 199.159 176.505 201.301 168.947C201.53 168.139 201.898 167.478 202.12 167.478C202.341 167.478 203.264 167.976 204.169 168.585C205.971 169.796 209.584 171.836 219.207 177.078C231.217 183.62 238.065 188.685 242.722 194.472C246.8 199.539 249.323 205.312 250.538 212.351C251.226 216.338 250.822 225.931 249.798 229.945C246.569 242.605 239.064 252.548 228.361 258.35C226.793 259.201 225.385 259.898 225.233 259.902C225.079 259.905 225.652 258.453 226.503 256.676C230.102 249.157 230.513 241.842 227.79 233.701C226.123 228.715 222.725 222.633 215.863 212.351C207.884 200.4 205.928 197.219 203.966 193.004Z" fill="black"/>
</g>
<g style="mix-blend-mode:darken">
<path d="M93.4647 238.295C104.382 229.087 117.966 222.545 130.339 220.536C135.672 219.671 144.555 220.014 149.493 221.277C157.409 223.301 164.489 227.834 168.171 233.234C171.77 238.511 173.314 243.11 174.922 253.343C175.556 257.381 176.245 261.433 176.454 262.351C177.661 267.655 180.01 271.893 182.922 274.023C187.545 277.404 195.507 277.613 203.339 274.562C204.668 274.043 205.822 273.685 205.903 273.766C206.188 274.048 202.243 276.685 199.461 278.074C195.717 279.942 192.741 280.664 188.785 280.664C181.612 280.664 175.656 277.02 170.687 269.586C169.709 268.123 167.511 263.742 165.803 259.849C160.556 247.894 157.965 244.252 151.873 240.266C146.571 236.799 139.734 236.177 134.591 238.696C127.834 242.006 125.949 250.632 130.788 256.098C132.712 258.271 136.298 260.144 139.231 260.508C144.717 261.191 149.433 257.021 149.433 251.487C149.433 247.894 148.05 245.843 144.57 244.274C139.817 242.131 134.707 244.635 134.732 249.097C134.742 251 135.571 252.193 137.48 253.057C138.705 253.61 138.733 253.653 137.735 253.446C133.373 252.543 132.352 247.29 135.858 243.803C140.068 239.618 148.774 241.464 151.764 247.179C153.02 249.579 153.165 254.359 152.07 257.245C149.62 263.706 142.474 267.102 135.225 265.254C130.29 263.994 128.28 262.632 122.33 256.509C111.991 245.868 107.977 243.806 93.0707 241.483L90.2144 241.037L93.4647 238.295Z" fill="black"/>
</g>
<g style="mix-blend-mode:darken">
<path fill-rule="evenodd" clip-rule="evenodd" d="M44.9519 47.8592C79.481 89.7256 103.263 106.999 105.906 110.648C108.088 113.662 107.267 116.371 103.528 118.494C101.45 119.674 97.1755 120.87 95.0357 120.87C92.6154 120.87 91.7844 119.938 91.7844 119.938C90.3811 118.608 89.5907 118.84 82.384 106.061C72.379 90.5519 64.006 77.6862 63.7776 77.4707C63.2494 76.9726 63.2585 76.9894 81.364 109.352C84.2893 116.098 81.9457 118.574 81.9457 119.534C81.9457 121.489 81.4121 122.516 78.9988 125.205C74.9758 129.689 73.1774 134.727 71.8792 145.153C70.424 156.84 66.3315 165.096 54.9904 179.226C48.3517 187.497 47.2654 189.013 45.5903 192.347C43.4803 196.545 42.9002 198.897 42.665 204.197C42.4165 209.803 42.9005 213.424 44.6147 218.783C46.1153 223.475 47.6817 226.573 51.6862 232.768C55.142 238.115 57.1319 242.089 57.1319 243.644C57.1319 244.881 57.3683 244.882 62.7234 243.674C75.5388 240.783 85.9448 235.698 91.7972 229.466C95.4194 225.61 96.2698 223.48 96.2973 218.196C96.3154 214.738 96.1937 214.014 95.2583 212.025C93.7356 208.788 90.9635 206.097 84.8537 201.925C76.8484 196.457 73.4291 192.056 72.4847 186.003C71.7098 181.037 72.6087 177.532 77.0374 168.26C81.6212 158.662 82.7572 154.572 83.5256 144.897C84.022 138.647 84.7092 136.182 86.5068 134.203C88.3817 132.14 90.0694 131.441 94.7092 130.808C102.274 129.776 107.09 127.821 111.049 124.176C114.484 121.014 115.921 117.968 116.142 113.381L116.309 109.905L114.39 107.67C107.439 99.5733 40.2971 41.4949 39.8693 41.4949C39.778 41.4949 42.0652 44.359 44.9519 47.8592ZM61.0337 210.54C62.6052 207.759 61.7701 204.186 59.1415 202.439C56.6578 200.789 52.7993 201.567 52.7993 203.717C52.7993 204.373 53.1625 204.85 53.9809 205.271C55.3591 205.979 55.4591 206.776 54.3748 208.404C53.2767 210.053 53.3653 211.503 54.6249 212.488C56.655 214.075 59.5287 213.202 61.0337 210.54Z" fill="black"/>
</g>
<g style="mix-blend-mode:darken">
<path fill-rule="evenodd" clip-rule="evenodd" d="M121.085 132.629C117.533 133.719 114.081 137.479 113.013 141.421C112.361 143.826 112.731 148.045 113.707 149.348C115.285 151.452 116.81 152.007 120.941 151.978C129.028 151.922 136.058 148.457 136.875 144.125C137.545 140.574 134.458 135.654 130.205 133.493C128.01 132.379 123.343 131.937 121.085 132.629ZM130.538 140.014C131.785 138.244 131.24 136.331 129.119 135.037C125.08 132.573 118.971 134.612 118.971 138.424C118.971 140.321 122.157 142.392 125.076 142.392C127.02 142.392 129.679 141.234 130.538 140.014Z" fill="black"/>
</g>
</g>
</svg>
